<svg xmlns="http://www.w3.org/2000/svg" width="805" height="600"><rect width="805" height="600" x="0" y="0" fill="#FFFFFF" id="background"/><g transform="translate(10,10)" id="viz"><g id="arcs"><path d="M5.410046439538594,290A8.135044227404011,8.135044227404011 0,0,1 21.680134894346615,290" fill="none" stroke="gray" stroke-width="0.9065696534454655" opacity="0.5"/><path d="M36.92833638898108,290A7.624100747317232,7.624100747317232 0,0,1 21.680134894346615,290" fill="none" stroke="gray" stroke-width="0.44463868087217406" opacity="0.5"/><path d="M50.71382306173385,290A14.643057362428479,14.643057362428479 0,0,1 79.9999377865908,290" fill="none" stroke="gray" stroke-width="1.5265408329592969" opacity="0.5"/><path d="M116.71105725998308,290A18.355559736696136,18.355559736696136 0,0,1 79.9999377865908,290" fill="none" stroke="gray" stroke-width="10.947579787862322" opacity="0.5"/><path d="M271.74486756581115,290A19.29034670309244,19.29034670309244 0,0,1 310.325560971996,290" fill="none" stroke="gray" stroke-width="1.1655288086744937" opacity="0.5"/><path d="M364.2713384438751,290A26.972888735939534,26.972888735939534 0,0,1 310.325560971996,290" fill="none" stroke="gray" stroke-width="28.834471191325502" opacity="0.5"/><path d="M500.9096996734633,290A7.3272575919268945,7.3272575919268945 0,0,1 515.5642148573171,290" fill="none" stroke="gray" stroke-width="0.2503130093784697" opacity="0.5"/><path d="M531.0351835119529,290A7.73548432731792,7.73548432731792 0,0,1 515.5642148573171,290" fill="none" stroke="gray" stroke-width="0.530391438898207" opacity="0.5"/><path d="M543.7658957116355,290A14.100840427159198,14.100840427159198 0,0,1 515.5642148573171,290" fill="none" stroke="gray" stroke-width="0.5717795469041601" opacity="0.5"/><path d="M543.7658957116355,290A8.625636428199641,8.625636428199641 0,0,1 561.0171685680348,290" fill="none" stroke="gray" stroke-width="0.20183789657697668" opacity="0.5"/><path d="M21.680134894346615,290A269.6685168368441,269.6685168368441 0,0,1 561.0171685680348,290" fill="none" stroke="gray" stroke-width="1.3513500744135505" opacity="0.5"/><path d="M79.9999377865908,290A36.75031443205198,36.75031443205198 0,0,1 153.50056665069476,290" fill="none" stroke="gray" stroke-width="12.47426236091753" opacity="0.5"/><path d="M310.325560971996,290A54.074855321449974,54.074855321449974 0,0,1 418.475271614896,290" fill="none" stroke="gray" stroke-width="30" opacity="0.5"/><path d="M515.5642148573171,290A22.72647685535884,22.72647685535884 0,0,1 561.0171685680348,290" fill="none" stroke="gray" stroke-width="0.42791334955469984" opacity="0.5"/><path d="M515.5642148573171,290A181.03182410331118,181.03182410331118 0,0,1 153.50056665069476,290" fill="none" stroke="gray" stroke-width="0.10970683423495782" opacity="0.5"/><path d="M515.5642148573171,290A48.54447162121056,48.54447162121056 0,0,1 418.475271614896,290" fill="none" stroke="gray" stroke-width="0.5611490397108502" opacity="0.5"/><path d="M515.5642148573171,290A57.14524484067948,57.14524484067948 0,0,1 629.8547045386761,290" fill="none" stroke="gray" stroke-width="0.2537147716803288" opacity="0.5"/><path d="M561.0171685680348,290A53.8295313479789,53.8295313479789 0,0,1 668.6762312639926,290" fill="none" stroke="gray" stroke-width="0.46519099477923975" opacity="0.5"/><path d="M418.475271614896,290A125.1004798245483,125.1004798245483 0,0,1 668.6762312639926,290" fill="none" stroke="gray" stroke-width="16.33965651650091" opacity="0.5"/><path d="M668.6762312639926,290A45.567664224846965,45.567664224846965 0,0,1 577.5409028142986,290" fill="none" stroke="gray" stroke-width="0.22876851480002833" opacity="0.5"/><path d="M668.6762312639926,290A21.1377328856737,21.1377328856737 0,0,1 710.95169703534,290" fill="none" stroke="gray" stroke-width="8.16465474474971" opacity="0.5"/><path d="M668.6762312639926,290A19.41076336265826,19.41076336265826 0,0,1 629.8547045386761,290" fill="none" stroke="gray" stroke-width="8.411424251730411" opacity="0.5"/><path d="M732.5846736510717,290A10.816488307865882,10.816488307865882 0,0,1 710.95169703534,290" fill="none" stroke="gray" stroke-width="0.0011339207672863858" opacity="0.5"/><path d="M740.6610670728963,290A14.854685018778184,14.854685018778184 0,0,1 710.95169703534,290" fill="none" stroke="gray" stroke-width="0.07540573102454465" opacity="0.5"/><path d="M710.95169703534,290A40.54849624833196,40.54849624833196 0,0,1 629.8547045386761,290" fill="none" stroke="gray" stroke-width="0.5747560889182868" opacity="0.5"/><path d="M577.5409028142986,290A10.912559071717112,10.912559071717112 0,0,1 599.3660209577329,290" fill="none" stroke="gray" stroke-width="0.22876851480002833" opacity="0.5"/><path d="M710.95169703534,290A123.6238927993711,123.6238927993711 0,0,1 463.70391143659776,290" fill="none" stroke="gray" stroke-width="0.8596536816989911" opacity="0.5"/><path d="M418.475271614896,290A22.614319910850895,22.614319910850895 0,0,1 463.70391143659776,290" fill="none" stroke="gray" stroke-width="7.341286527603884" opacity="0.5"/><path d="M710.95169703534,290A112.20632820349854,112.20632820349854 0,0,1 486.5390406283429,290" fill="none" stroke="gray" stroke-width="0.4452056412558172" opacity="0.5"/><path d="M418.475271614896,290A34.03188450672346,34.03188450672346 0,0,1 486.5390406283429,290" fill="none" stroke="gray" stroke-width="2.0053388769459732" opacity="0.5"/><path d="M710.95169703534,290A21.083071457559015,21.083071457559015 0,0,1 753.117839950458,290" fill="none" stroke="gray" stroke-width="1.4655925917176535" opacity="0.5"/><path d="M418.475271614896,290A167.32128416778102,167.32128416778102 0,0,1 753.117839950458,290" fill="none" stroke="gray" stroke-width="0.11381729701637096" opacity="0.5"/><path d="M710.95169703534,290A28.966327410675206,28.966327410675206 0,0,1 768.8843518566904,290" fill="none" stroke="gray" stroke-width="1.3086863055443998" opacity="0.5"/><path d="M418.475271614896,290A175.2045401208972,175.2045401208972 0,0,1 768.8843518566904,290" fill="none" stroke="gray" stroke-width="0.1282747867992724" opacity="0.5"/><path d="M710.95169703534,290A55.79283803880355,55.79283803880355 0,0,1 599.3660209577329,290" fill="none" stroke="gray" stroke-width="3.229122865039805" opacity="0.5"/><path d="M561.0171685680348,290A19.174426194849048,19.174426194849048 0,0,1 599.3660209577329,290" fill="none" stroke="gray" stroke-width="1.503153717134015" opacity="0.5"/><path d="M153.50056665069476,290A222.93272715351907,222.93272715351907 0,0,1 599.3660209577329,290" fill="none" stroke="gray" stroke-width="2.8243131511185653" opacity="0.5"/><path d="M418.475271614896,290A90.44537467141845,90.44537467141845 0,0,1 599.3660209577329,290" fill="none" stroke="gray" stroke-width="4.260565542982683" opacity="0.5"/><path d="M710.95169703534,290A35.31162229867783,35.31162229867783 0,0,1 781.5749416326956,290" fill="none" stroke="gray" stroke-width="0.0633578228721268" opacity="0.5"/><path d="M561.0171685680348,290A110.27888653233043,110.27888653233043 0,0,1 781.5749416326956,290" fill="none" stroke="gray" stroke-width="0.012614868536061042" opacity="0.5"/><path d="M153.50056665069476,290A314.03718749100045,314.03718749100045 0,0,1 781.5749416326956,290" fill="none" stroke="gray" stroke-width="0.05230209539108454" opacity="0.5"/><path d="M418.475271614896,290A181.54983500889983,181.54983500889983 0,0,1 781.5749416326956,290" fill="none" stroke="gray" stroke-width="0.030048900333089223" opacity="0.5"/><path d="M710.95169703534,290A262.348768146485,262.348768146485 0,0,1 186.25416074236995,290" fill="none" stroke="gray" stroke-width="0.19616829274054473" opacity="0.5"/><path d="M153.50056665069476,290A16.37679704583759,16.37679704583759 0,0,1 186.25416074236995,290" fill="none" stroke="gray" stroke-width="4.564172828423613" opacity="0.5"/><path d="M710.95169703534,290A254.14598182022274,254.14598182022274 0,0,1 202.65973339489446,290" fill="none" stroke="gray" stroke-width="0.09836762656209397" opacity="0.5"/><path d="M153.50056665069476,290A24.579583372099847,24.579583372099847 0,0,1 202.65973339489446,290" fill="none" stroke="gray" stroke-width="0.10602159174127708" opacity="0.5"/><path d="M153.50056665069476,290A29.694943096760483,29.694943096760483 0,0,1 212.89045284421573,290" fill="none" stroke="gray" stroke-width="0.20949186175615978" opacity="0.5"/><path d="M153.50056665069476,290A35.01177054338699,35.01177054338699 0,0,1 223.52410773746874,290" fill="none" stroke="gray" stroke-width="0.31877347570338516" opacity="0.5"/><path d="M153.50056665069476,290A42.43665848130317,42.43665848130317 0,0,1 238.3738836133011,290" fill="none" stroke="gray" stroke-width="2.672934728685833" opacity="0.5"/><path d="M153.50056665069476,290A51.27661329866466,51.27661329866466 0,0,1 256.0537932480241,290" fill="none" stroke="gray" stroke-width="1.8355342420448368" opacity="0.5"/><path d="M418.475271614896,290A105.68971646189004,105.68971646189004 0,0,1 629.8547045386761,290" fill="none" stroke="gray" stroke-width="0.34173537124093445" opacity="0.5"/></g><g id="nodes"><g><circle cx="5.410046439538594" cy="290" r="5.410046439538594"/><text transform="translate(5.410046439538594,300.4100464395386) rotate(-90)" alignment-baseline="middle" font-family="Helvetica, Arial, sans-serif" font-size="12" text-anchor="end">Coal reserves</text></g><g><circle cx="21.680134894346615" cy="290" r="7.887721368559497"/><text transform="translate(21.680134894346615,302.8877213685595) rotate(-90)" alignment-baseline="middle" font-family="Helvetica, Arial, sans-serif" font-size="12" text-anchor="end">Coal</text></g><g><circle cx="36.92833638898108" cy="290" r="4.388159479365039"/><text transform="translate(36.92833638898108,299.388159479365) rotate(-90)" alignment-baseline="middle" font-family="Helvetica, Arial, sans-serif" font-size="12" text-anchor="end">Coal imports</text></g><g><circle cx="50.71382306173385" cy="290" r="6.425006546677794"/><text transform="translate(50.71382306173385,301.4250065466778) rotate(-90)" alignment-baseline="middle" font-family="Helvetica, Arial, sans-serif" font-size="12" text-anchor="end">Oil reserves</text></g><g><circle cx="79.9999377865908" cy="290" r="19.888787531469234"/><text transform="translate(79.9999377865908,314.88878753146923) rotate(-90)" alignment-baseline="middle" font-family="Helvetica, Arial, sans-serif" font-size="12" text-anchor="end">Oil</text></g><g><circle cx="116.71105725998308" cy="290" r="13.8500112952131"/><text transform="translate(116.71105725998308,308.8500112952131) rotate(-90)" alignment-baseline="middle" font-family="Helvetica, Arial, sans-serif" font-size="12" text-anchor="end">Oil imports</text></g><g><circle cx="153.50056665069476" cy="290" r="19.96717744878865"/><text transform="translate(153.50056665069476,314.9671774487887) rotate(-90)" alignment-baseline="middle" font-family="Helvetica, Arial, sans-serif" font-size="12" text-anchor="end">Liquid</text></g><g><circle cx="186.25416074236995" cy="290" r="9.81409599617659"/><text transform="translate(186.25416074236995,304.8140959961766) rotate(-90)" alignment-baseline="middle" font-family="Helvetica, Arial, sans-serif" font-size="12" text-anchor="end">Road transport</text></g><g><circle cx="202.65973339489446" cy="290" r="3.6191560096380067"/><text transform="translate(202.65973339489446,298.619156009638) rotate(-90)" alignment-baseline="middle" font-family="Helvetica, Arial, sans-serif" font-size="12" text-anchor="end">Rail transport</text></g><g><circle cx="212.89045284421573" cy="290" r="3.639242792973339"/><text transform="translate(212.89045284421573,298.63924279297333) rotate(-90)" alignment-baseline="middle" font-family="Helvetica, Arial, sans-serif" font-size="12" text-anchor="end">Domestic aviation</text></g><g><circle cx="223.52410773746874" cy="290" r="4.022091453569745"/><text transform="translate(223.52410773746874,299.0220914535698) rotate(-90)" alignment-baseline="middle" font-family="Helvetica, Arial, sans-serif" font-size="12" text-anchor="end">National navigation</text></g><g><circle cx="238.3738836133011" cy="290" r="7.855363775552696"/><text transform="translate(238.3738836133011,302.8553637755527) rotate(-90)" alignment-baseline="middle" font-family="Helvetica, Arial, sans-serif" font-size="12" text-anchor="end">International aviation</text></g><g><circle cx="256.0537932480241" cy="290" r="6.8522252124603105"/><text transform="translate(256.0537932480241,301.8522252124603) rotate(-90)" alignment-baseline="middle" font-family="Helvetica, Arial, sans-serif" font-size="12" text-anchor="end">International shipping</text></g><g><circle cx="271.74486756581115" cy="290" r="5.86652845861685"/><text transform="translate(271.74486756581115,300.86652845861687) rotate(-90)" alignment-baseline="middle" font-family="Helvetica, Arial, sans-serif" font-size="12" text-anchor="end">Gas reserves</text></g><g><circle cx="310.325560971996" cy="290" r="29.74184430085815"/><text transform="translate(310.325560971996,324.74184430085813) rotate(-90)" alignment-baseline="middle" font-family="Helvetica, Arial, sans-serif" font-size="12" text-anchor="end">Natural Gas</text></g><g><circle cx="364.2713384438751" cy="290" r="21.231612524310957"/><text transform="translate(364.2713384438751,316.23161252431095) rotate(-90)" alignment-baseline="middle" font-family="Helvetica, Arial, sans-serif" font-size="12" text-anchor="end">Gas imports</text></g><g><circle cx="418.475271614896" cy="290" r="30"/><text transform="translate(418.475271614896,325) rotate(-90)" alignment-baseline="middle" font-family="Helvetica, Arial, sans-serif" font-size="12" text-anchor="end">Gas</text></g><g><circle cx="463.70391143659776" cy="290" r="12.25631917499185"/><text transform="translate(463.70391143659776,307.25631917499186) rotate(-90)" alignment-baseline="middle" font-family="Helvetica, Arial, sans-serif" font-size="12" text-anchor="end">Heating and cooling - homes</text></g><g><circle cx="486.5390406283429" cy="290" r="7.606489370043349"/><text transform="translate(486.5390406283429,302.60648937004333) rotate(-90)" alignment-baseline="middle" font-family="Helvetica, Arial, sans-serif" font-size="12" text-anchor="end">Heating and cooling - commercial</text></g><g><circle cx="500.9096996734633" cy="290" r="3.791849028367155"/><text transform="translate(500.9096996734633,298.79184902836715) rotate(-90)" alignment-baseline="middle" font-family="Helvetica, Arial, sans-serif" font-size="12" text-anchor="end">UK land based bioenergy</text></g><g><circle cx="515.5642148573171" cy="290" r="7.8903455087767105"/><text transform="translate(515.5642148573171,302.8903455087767) rotate(-90)" alignment-baseline="middle" font-family="Helvetica, Arial, sans-serif" font-size="12" text-anchor="end">Bio-conversion</text></g><g><circle cx="531.0351835119529" cy="290" r="4.608302499149252"/><text transform="translate(531.0351835119529,299.60830249914926) rotate(-90)" alignment-baseline="middle" font-family="Helvetica, Arial, sans-serif" font-size="12" text-anchor="end">Agricultural 'waste'</text></g><g><circle cx="543.7658957116355" cy="290" r="5.150089053823276"/><text transform="translate(543.7658957116355,300.15008905382325) rotate(-90)" alignment-baseline="middle" font-family="Helvetica, Arial, sans-serif" font-size="12" text-anchor="end">Other waste</text></g><g><circle cx="561.0171685680348" cy="290" r="9.128863155866185"/><text transform="translate(561.0171685680348,304.12886315586616) rotate(-90)" alignment-baseline="middle" font-family="Helvetica, Arial, sans-serif" font-size="12" text-anchor="end">Solid</text></g><g><circle cx="577.5409028142986" cy="290" r="4.422550443687752"/><text transform="translate(577.5409028142986,299.4225504436877) rotate(-90)" alignment-baseline="middle" font-family="Helvetica, Arial, sans-serif" font-size="12" text-anchor="end">District heating</text></g><g><circle cx="599.3660209577329" cy="290" r="14.430247053036581"/><text transform="translate(599.3660209577329,309.43024705303657) rotate(-90)" alignment-baseline="middle" font-family="Helvetica, Arial, sans-serif" font-size="12" text-anchor="end">Industry</text></g><g><circle cx="629.8547045386761" cy="290" r="13.086115881196786"/><text transform="translate(629.8547045386761,308.0861158811968) rotate(-90)" alignment-baseline="middle" font-family="Helvetica, Arial, sans-serif" font-size="12" text-anchor="end">Losses</text></g><g><circle cx="668.6762312639926" cy="290" r="22.7630901974097"/><text transform="translate(668.6762312639926,317.7630901974097) rotate(-90)" alignment-baseline="middle" font-family="Helvetica, Arial, sans-serif" font-size="12" text-anchor="end">Thermal generation</text></g><g><circle cx="710.95169703534" cy="290" r="16.540054927227725"/><text transform="translate(710.95169703534,311.54005492722774) rotate(-90)" alignment-baseline="middle" font-family="Helvetica, Arial, sans-serif" font-size="12" text-anchor="end">Electricity grid</text></g><g><circle cx="732.5846736510717" cy="290" r="2.1206010417940635"/><text transform="translate(732.5846736510717,297.1206010417941) rotate(-90)" alignment-baseline="middle" font-family="Helvetica, Arial, sans-serif" font-size="12" text-anchor="end">Wind</text></g><g><circle cx="740.6610670728963" cy="290" r="2.983471733320584"/><text transform="translate(740.6610670728963,297.9834717333206) rotate(-90)" alignment-baseline="middle" font-family="Helvetica, Arial, sans-serif" font-size="12" text-anchor="end">Hydro</text></g><g><circle cx="753.117839950458" cy="290" r="6.500980497531165"/><text transform="translate(753.117839950458,301.50098049753115) rotate(-90)" alignment-baseline="middle" font-family="Helvetica, Arial, sans-serif" font-size="12" text-anchor="end">Lighting &amp; appliances - homes</text></g><g><circle cx="768.8843518566904" cy="290" r="6.293210761991318"/><text transform="translate(768.8843518566904,301.2932107619913) rotate(-90)" alignment-baseline="middle" font-family="Helvetica, Arial, sans-serif" font-size="12" text-anchor="end">Lighting &amp; appliances - commercial</text></g><g><circle cx="781.5749416326956" cy="290" r="3.425058367304021"/><text transform="translate(781.5749416326956,298.425058367304) rotate(-90)" alignment-baseline="middle" font-family="Helvetica, Arial, sans-serif" font-size="12" text-anchor="end">Agriculture</text></g></g></g></svg>